<svg width="1630" height="440" viewBox="0 0 1630 440" fill="none" xmlns="http://www.w3.org/2000/svg">
<path d="M157.656 191.782C143.852 191.782 136.949 197.958 136.949 210.31C136.949 215.214 139.492 219.573 144.578 223.388C149.664 227.202 159.291 232.651 173.459 239.735C214.328 260.261 234.763 288.96 234.763 325.833C234.763 362.706 222.865 390.86 199.07 410.296C175.457 429.731 142.489 439.449 100.167 439.449C57.8447 439.449 24.6045 433.728 0.446289 422.284V337.549C30.417 353.896 60.4785 362.07 90.6309 362.07C115.334 362.07 127.686 355.713 127.686 342.998C127.686 336.822 125.324 331.373 120.602 326.65C115.879 321.928 104.072 314.208 85.1816 303.491C65.9277 292.956 51.8506 280.877 42.9502 267.254C34.2314 253.631 29.8721 237.011 29.8721 217.394C29.8721 186.151 40.8613 162.084 62.8398 145.191C84.8184 128.299 115.516 119.853 154.932 119.853C194.529 119.853 229.858 129.479 260.919 148.733L227.951 217.394C215.963 209.583 203.521 203.407 190.624 198.866C177.909 194.144 166.92 191.782 157.656 191.782ZM481.34 265.619C484.609 251.451 486.244 239.645 486.244 230.199C486.244 220.572 484.246 213.761 480.25 209.765C476.436 205.587 471.622 203.498 465.81 203.498C443.104 203.498 426.303 230.108 415.404 283.329L383.799 434H278.356L367.996 10.0508H473.438L458.998 77.8936C452.822 106.048 444.83 131.75 435.021 155H437.201C455.365 131.568 480.159 119.853 511.583 119.853C537.194 119.853 557.175 127.663 571.524 143.284C585.874 158.724 593.049 180.157 593.049 207.585C593.049 227.202 590.778 248 586.237 269.979L551.635 434H446.192L481.34 265.619ZM913.19 342.181C898.841 373.06 878.497 397.036 852.159 414.11C825.821 431.003 794.488 439.449 758.16 439.449C722.014 439.449 693.587 429.187 672.88 408.661C652.354 388.136 642.092 358.801 642.092 320.656C642.092 282.33 649.357 247.728 663.889 216.849C678.42 185.97 698.764 162.084 724.92 145.191C751.076 128.299 782.318 119.853 818.646 119.853C854.975 119.853 883.401 130.115 903.927 150.641C924.634 171.166 934.987 200.501 934.987 238.646C934.987 276.608 927.722 311.12 913.19 342.181ZM803.934 199.139C789.039 199.139 776.233 211.763 765.517 237.011C754.981 262.259 749.714 291.321 749.714 324.198C749.714 348.356 757.343 360.436 772.601 360.436C787.313 360.436 800.119 347.812 811.018 322.563C821.916 297.315 827.365 268.253 827.365 235.376C827.365 223.569 825.276 214.578 821.099 208.402C816.921 202.227 811.199 199.139 803.934 199.139ZM970.68 125.302H1075.58L1082.93 289.596C1082.93 302.311 1082.21 313.027 1080.75 321.746H1082.93C1083.3 319.203 1084.93 313.481 1087.84 304.581C1090.74 295.681 1094.01 287.507 1097.65 280.06L1169.85 125.302H1282.65L1115.9 434H1010.19L970.68 125.302ZM1334.42 57.459C1334.42 38.9316 1339.77 24.8545 1350.49 15.2275C1361.21 5.41895 1375.56 0.514648 1393.54 0.514648C1411.7 0.514648 1425.24 3.875 1434.14 10.5957C1443.22 17.1348 1447.76 26.5801 1447.76 38.9316C1447.76 57.0957 1442.4 71.1729 1431.68 81.1631C1421.15 90.9717 1406.07 95.876 1386.46 95.876C1351.76 95.876 1334.42 83.0703 1334.42 57.459ZM1256.49 434L1321.61 125.302H1427.6L1361.93 434H1256.49ZM1515.87 57.459C1515.87 38.9316 1521.23 24.8545 1531.95 15.2275C1542.67 5.41895 1557.02 0.514648 1575 0.514648C1593.16 0.514648 1606.69 3.875 1615.59 10.5957C1624.68 17.1348 1629.22 26.5801 1629.22 38.9316C1629.22 57.0957 1623.86 71.1729 1613.14 81.1631C1602.61 90.9717 1587.53 95.876 1567.91 95.876C1533.22 95.876 1515.87 83.0703 1515.87 57.459ZM1437.95 434L1503.07 125.302H1609.06L1543.39 434H1437.95Z" fill="#FF3F00"/>
</svg>
